<?xml version="1.0" standalone="no"?>
<!DOCTYPE svg PUBLIC "-//W3C//DTD SVG 20010904//EN"
 "http://www.w3.org/TR/2001/REC-SVG-20010904/DTD/svg10.dtd">
<svg version="1.0" xmlns="http://www.w3.org/2000/svg"
 width="747.000000pt" height="747.000000pt" viewBox="0 0 747.000000 747.000000"
 preserveAspectRatio="xMidYMid meet">
<metadata>
Created by potrace 1.14, written by Peter Selinger 2001-2017
</metadata>
<g transform="translate(0.000000,747.000000) scale(0.100000,-0.100000)"
fill="#000000" stroke="none">
<path d="M5127 7043 c-252 -31 -563 -168 -879 -388 -82 -57 -298 -223 -308
-236 -3 -4 -25 -23 -50 -44 -25 -21 -69 -60 -99 -87 l-54 -49 -36 33 c-19 18
-38 35 -41 38 -3 4 -48 42 -100 86 -567 477 -1084 702 -1469 638 -219 -36
-376 -158 -484 -377 -62 -125 -92 -226 -124 -417 -24 -139 -23 -620 1 -745 2
-11 7 -49 11 -85 4 -36 9 -68 10 -71 2 -3 6 -25 9 -50 3 -24 15 -89 26 -144
11 -55 23 -114 26 -131 l5 -32 -83 -26 c-94 -30 -238 -82 -283 -101 -16 -8
-79 -35 -140 -60 -387 -166 -703 -386 -879 -615 -64 -83 -138 -228 -156 -308
-90 -396 214 -792 860 -1119 147 -74 415 -184 593 -243 96 -31 98 -33 92 -59
-14 -54 -53 -258 -60 -306 -3 -27 -10 -77 -15 -110 -9 -57 -15 -120 -25 -245
-6 -63 -6 -377 -1 -430 52 -535 241 -841 571 -925 75 -19 229 -25 326 -12 250
34 581 186 900 414 124 88 307 235 394 317 39 36 75 65 80 66 6 0 24 -12 40
-28 446 -407 920 -685 1290 -756 105 -20 318 -15 395 9 135 42 270 142 349
258 75 110 158 337 176 477 4 29 9 62 11 74 23 116 22 496 -1 671 -2 17 -7 57
-10 90 -4 33 -8 67 -10 75 -2 8 -7 33 -10 55 -3 23 -8 52 -10 65 -3 14 -8 39
-10 55 -3 17 -13 66 -22 110 -8 44 -16 86 -17 93 -1 7 54 31 139 61 373 129
669 273 910 445 119 84 305 266 364 354 141 210 173 424 95 629 -142 378 -651
738 -1389 984 -71 24 -131 44 -132 44 -1 0 6 39 17 85 10 47 21 103 24 125 7
44 12 73 26 155 13 78 19 126 25 200 3 36 8 82 11 104 8 54 8 389 0 459 -14
127 -18 156 -38 246 -67 311 -200 517 -400 620 -128 66 -268 86 -441 64z m226
-343 c80 -16 138 -63 200 -162 47 -76 101 -276 114 -430 13 -147 6 -469 -11
-568 -3 -14 -7 -46 -10 -72 -11 -100 -62 -378 -71 -387 -2 -2 -26 2 -52 8 -26
6 -57 13 -68 16 -11 2 -74 15 -140 29 -117 24 -137 28 -220 41 -22 3 -62 10
-90 15 -27 5 -88 14 -135 20 -47 6 -103 14 -125 17 -58 8 -77 10 -107 12 -20
1 -36 14 -64 54 -43 58 -214 279 -223 287 -3 3 -22 25 -42 50 -20 25 -46 56
-58 70 -12 14 -43 50 -69 80 -26 30 -70 80 -98 110 -28 30 -63 69 -77 85 l-27
30 32 28 c18 16 49 43 68 61 172 157 444 351 635 452 270 143 460 189 638 154z
m-2938 -20 c259 -65 588 -257 915 -534 123 -104 160 -138 160 -145 0 -3 -17
-24 -38 -46 -35 -37 -160 -177 -209 -235 -89 -103 -171 -206 -266 -332 -91
-121 -116 -148 -137 -149 -14 0 -34 -2 -45 -4 -11 -2 -40 -6 -65 -9 -80 -9
-204 -26 -255 -36 -27 -5 -68 -12 -90 -15 -22 -3 -47 -7 -55 -10 -8 -2 -32 -6
-54 -10 -21 -3 -41 -7 -45 -9 -3 -2 -26 -7 -51 -10 -25 -3 -60 -10 -77 -15
-18 -5 -33 -8 -33 -6 0 3 -11 0 -25 -5 -14 -5 -36 -12 -48 -14 -12 -2 -39 -7
-59 -11 -33 -6 -38 -5 -42 16 -19 86 -45 220 -50 254 -3 22 -8 60 -11 85 -4
25 -8 56 -11 70 -19 116 -27 523 -11 645 39 318 154 513 318 544 71 13 188 5
284 -19z m1500 -1111 c73 -82 235 -281 235 -288 0 -4 -17 -6 -37 -4 -63 6
-591 8 -695 3 -63 -3 -94 -2 -90 5 7 12 114 148 122 155 3 3 30 34 60 70 30
36 60 70 65 76 6 6 44 48 85 94 l74 82 76 -79 c41 -44 89 -95 105 -114z m225
-633 c201 -12 275 -18 283 -23 10 -6 147 -211 239 -358 139 -223 319 -553 425
-777 l22 -47 -113 -223 c-62 -123 -122 -239 -133 -258 -50 -88 -125 -216 -133
-230 -5 -8 -35 -58 -67 -110 -83 -137 -232 -360 -240 -361 -5 0 -15 -2 -24 -4
-18 -3 -169 -14 -299 -21 -112 -6 -624 -6 -720 0 -243 15 -295 19 -309 21 -46
6 -427 635 -616 1017 l-84 167 100 198 c55 109 104 205 109 213 5 8 48 85 96
170 93 164 217 365 318 515 l61 91 50 3 c28 2 68 5 90 7 22 1 110 6 195 10 85
3 156 7 157 8 5 4 500 -3 593 -8z m-1558 -118 c-35 -51 -212 -346 -212 -353 0
-3 -11 -22 -23 -43 -13 -20 -50 -86 -81 -147 -32 -60 -61 -114 -65 -118 -9 -9
-59 117 -126 313 -59 172 -89 270 -84 274 4 4 201 49 269 62 151 28 346 60
348 58 2 -1 -9 -22 -26 -46z m2348 38 c25 -3 72 -11 105 -17 33 -5 74 -12 90
-15 114 -20 348 -73 354 -80 10 -11 -95 -348 -149 -479 -4 -11 -17 -42 -28
-68 l-19 -49 -33 64 c-77 148 -212 384 -300 523 -65 104 -86 140 -73 132 4 -3
28 -8 53 -11z m-3106 -701 c21 -55 44 -113 51 -130 7 -16 38 -90 68 -162 l56
-133 -35 -82 c-97 -225 -265 -689 -288 -795 -4 -18 -11 -35 -16 -38 -7 -4
-178 50 -235 74 -11 5 -58 24 -105 42 -124 47 -357 161 -463 225 -290 177
-481 383 -503 541 -23 173 150 392 471 592 188 117 448 236 720 329 l110 37
66 -200 c36 -110 83 -245 103 -300z m4381 362 c236 -95 451 -215 626 -349 116
-89 223 -211 266 -304 85 -182 -13 -374 -299 -590 -184 -138 -442 -273 -718
-373 -80 -30 -154 -57 -165 -61 -82 -33 -104 -31 -105 7 0 42 -160 488 -264
735 l-65 157 30 68 c64 142 162 402 226 596 36 111 70 214 75 228 l9 26 137
-47 c75 -27 187 -68 247 -93z m-864 -1337 c55 -147 152 -450 146 -456 -5 -6
-121 -35 -188 -48 -13 -2 -44 -9 -69 -15 -40 -9 -215 -40 -323 -56 l-38 -6 42
68 c23 37 56 91 75 120 19 28 34 54 34 57 0 3 15 29 33 58 30 47 54 90 145
258 13 25 38 72 55 105 l30 60 15 -35 c8 -19 27 -69 43 -110z m-3080 15 c63
-120 200 -355 279 -480 31 -49 60 -96 64 -103 8 -13 3 -13 -159 14 -141 24
-353 66 -417 84 l-36 11 18 64 c10 35 21 68 24 73 3 5 7 19 10 33 5 24 83 248
126 362 12 33 26 55 30 50 4 -4 32 -53 61 -108z m-297 -820 c21 -3 42 -7 46
-10 3 -2 20 -7 36 -9 16 -3 40 -8 54 -11 30 -7 117 -25 145 -30 41 -8 251 -44
285 -49 19 -3 73 -10 120 -16 242 -31 220 -23 264 -86 99 -142 372 -471 530
-639 l57 -60 -68 -63 c-84 -79 -276 -233 -363 -293 -36 -24 -67 -47 -70 -50
-3 -3 -47 -31 -98 -62 -268 -165 -507 -250 -687 -243 -196 7 -300 120 -369
401 -51 208 -53 563 -5 875 5 36 11 79 14 97 2 18 6 40 9 50 3 10 8 36 11 58
4 22 8 45 9 50 2 6 6 31 10 57 5 28 13 45 20 43 6 -2 28 -7 50 -10z m3619 -2
c16 -58 54 -260 63 -338 3 -22 7 -51 9 -65 3 -14 7 -56 11 -95 3 -38 7 -90 10
-115 6 -65 6 -315 -1 -385 -31 -333 -135 -550 -286 -598 -244 -76 -659 89
-1116 445 -115 90 -150 120 -243 205 l-45 42 55 56 c30 31 60 62 65 68 208
240 280 327 416 507 52 69 99 126 105 127 5 1 41 4 79 8 39 4 77 9 86 10 9 2
40 6 70 10 30 3 65 8 79 10 61 10 100 16 175 30 44 8 91 16 105 19 45 8 274
56 310 65 50 13 48 13 53 -6z m-1457 -228 c-18 -22 -54 -67 -80 -100 -77 -97
-280 -323 -295 -330 -9 -3 -25 6 -40 22 -44 48 -143 156 -175 193 -43 48 -206
247 -206 252 0 1 186 3 414 3 l414 0 -32 -40z"/>
<path d="M3650 4423 c-312 -46 -558 -293 -598 -598 -10 -79 -3 -230 13 -255 2
-4 6 -19 9 -34 3 -15 18 -57 35 -92 94 -201 262 -337 481 -389 79 -19 235 -17
319 5 309 79 521 353 523 674 1 315 -214 592 -522 671 -61 16 -204 26 -260 18z"/>
</g>
</svg>
